<svg width="24" height="24" viewBox="0 0 24 24" fill="none" xmlns="http://www.w3.org/2000/svg">
<path d="M19.8479 7.40799L9.2479 18.0079C9.15402 18.1026 9.02622 18.1559 8.8929 18.1559C8.75958 18.1559 8.63178 18.1026 8.5379 18.0079L3.1479 12.6179C3.05324 12.5241 3 12.3964 3 12.263C3 12.1297 3.05324 12.0018 3.1479 11.9079L3.8479 11.208C3.94178 11.1134 4.06958 11.0601 4.2029 11.0601C4.33622 11.0601 4.46402 11.1134 4.5579 11.208L8.8879 15.538L18.4379 5.98799C18.6357 5.7962 18.9501 5.7962 19.1479 5.98799L19.8479 6.69799C19.9426 6.79187 19.9958 6.91967 19.9958 7.05299C19.9958 7.18631 19.9426 7.3141 19.8479 7.40799Z" fill="#67B3A5"/>
</svg>
