<svg width="25" height="21" viewBox="0 0 25 21" fill="none" xmlns="http://www.w3.org/2000/svg">
<path d="M22.167 0.833374H2.83366C1.50087 0.833374 0.416992 1.91725 0.416992 3.25004V17.75C0.416992 19.0828 1.50087 20.1667 2.83366 20.1667H22.167C23.4998 20.1667 24.5837 19.0828 24.5837 17.75V3.25004C24.5837 1.91725 23.4998 0.833374 22.167 0.833374ZM22.167 3.25004V3.8675L12.5003 11.387L2.83366 3.86871V3.25004H22.167ZM2.83366 17.75V6.92821L11.7584 13.8701C11.97 14.0363 12.2313 14.1266 12.5003 14.1266C12.7694 14.1266 13.0307 14.0363 13.2422 13.8701L22.167 6.92821L22.1694 17.75H2.83366Z" fill="black"/>
</svg>
