<svg width="117" height="20" viewBox="0 0 117 20" fill="none" xmlns="http://www.w3.org/2000/svg">
<path fill-rule="evenodd" clip-rule="evenodd" d="M31.3018 0.305237L21.4365 19.591H12.17L16.2987 11.5982H16.1135C12.7074 16.0197 7.62535 18.9305 0.384277 19.591V11.7088C0.384277 11.7088 5.01657 11.4352 7.73976 8.57215H0.384277V0.305389H8.65104V7.10468L8.83658 7.10392L12.2147 0.305389H18.4667V7.06157L18.6521 7.06127L22.157 0.305237H31.3018ZM85.0987 17.4623H87.7611V2.18025H85.0987V17.4623ZM70.4211 17.3063C70.9996 17.5468 71.5881 17.6671 72.1863 17.6671C73.1744 17.6671 74.0587 17.4266 74.8389 16.9454C75.619 16.4643 76.2237 15.8012 76.6528 14.956C77.082 14.1043 77.2965 13.1387 77.2965 12.0595C77.2965 10.9802 77.0754 10.0147 76.6334 9.16303C76.1912 8.31133 75.5768 7.65141 74.7901 7.18329C74.0034 6.70868 73.1094 6.47462 72.1081 6.48112C71.4711 6.48112 70.8599 6.60465 70.2747 6.85171C69.6896 7.09878 69.202 7.44986 68.8119 7.90498C68.7818 7.93963 68.7525 7.97462 68.7241 8.00997V2.19006H66.052V17.4624H68.7046L68.6993 16.0357C68.7678 16.1198 68.8412 16.2019 68.9191 16.2823C69.3417 16.718 69.8424 17.0592 70.4211 17.3063ZM73.1517 14.839C72.7161 15.1055 72.2187 15.2388 71.6595 15.2388C71.1069 15.2388 70.5998 15.1022 70.1382 14.8292C69.6765 14.5496 69.3092 14.1693 69.0361 13.6881C68.7696 13.2071 68.6363 12.6609 68.6363 12.0497C68.6298 11.4386 68.7598 10.8925 69.0264 10.4114C69.2995 9.92373 69.6668 9.54663 70.1285 9.28007C70.59 9.007 71.1005 8.87371 71.6595 8.88022C72.2187 8.87371 72.7161 9.00374 73.1517 9.27032C73.5938 9.53037 73.9318 9.90422 74.166 10.3918C74.4065 10.873 74.5268 11.4256 74.5268 12.0497C74.5268 12.6739 74.4065 13.2266 74.166 13.7076C73.9318 14.1888 73.5938 14.5659 73.1517 14.839ZM35.1588 3.10676H38.2016L40.9234 13.0471L43.819 3.10676H46.3546L49.4949 12.8476L52.1086 3.10676H54.8977L50.7822 17.4624H48.1588L44.9655 7.9463L42.0343 17.4624H39.3816L35.1588 3.10676ZM59.3914 17.7158C58.3315 17.7224 57.3758 17.4883 56.5241 17.0137C55.6789 16.5325 55.0125 15.8661 54.5248 15.0144C54.0437 14.1628 53.8032 13.1907 53.8032 12.0984C53.8032 11.0387 54.0503 10.0797 54.5444 9.22151C55.0385 8.36329 55.7081 7.69362 56.5534 7.21251C57.3986 6.73139 58.3413 6.49083 59.3815 6.49083C60.5519 6.49083 61.5758 6.75089 62.4535 7.27102C63.3378 7.79115 63.9977 8.52908 64.4333 9.48481C64.8754 10.4341 65.0347 11.5231 64.9112 12.7519H56.5575C56.5809 13.2414 56.703 13.6868 56.924 14.088C57.171 14.53 57.5156 14.8746 57.9577 15.1217C58.3999 15.3688 58.8939 15.4923 59.4401 15.4923C59.8562 15.4858 60.2431 15.4143 60.6006 15.2778C60.9582 15.1348 61.2605 14.943 61.5076 14.7023C61.7612 14.4618 61.94 14.1888 62.044 13.8832H64.8332C64.6641 14.6309 64.3261 15.2973 63.819 15.8824C63.3118 16.4611 62.6747 16.9129 61.9074 17.238C61.1403 17.5631 60.3016 17.7224 59.3914 17.7158ZM56.9337 10.07C56.7779 10.3417 56.6699 10.6342 56.6098 10.9477H62.1473C62.1071 10.5517 61.9849 10.1909 61.7807 9.86516C61.5466 9.48157 61.228 9.18575 60.825 8.97769C60.4219 8.76314 59.9667 8.65587 59.4596 8.65587C58.92 8.65587 58.4291 8.77939 57.9869 9.02646C57.5449 9.27352 57.1938 9.62136 56.9337 10.07ZM79.257 6.71516C79.257 5.84394 79.4552 5.07025 79.8519 4.39408C80.2484 3.71142 80.8044 3.18153 81.5196 2.80444C82.2412 2.42084 83.0832 2.22254 84.0454 2.20954V4.57937C83.5968 4.58588 83.2132 4.68015 82.8947 4.8622C82.5825 5.03774 82.342 5.29456 82.1729 5.63264C82.0174 5.94389 81.9334 6.30472 81.921 6.71516H83.9869V8.96797H81.9194V17.4624H79.257V8.96797H77.5406V6.71516H79.257ZM94.5289 17.6963C93.4431 17.6963 92.4711 17.459 91.6129 16.9844C90.7612 16.5032 90.0915 15.8401 89.6039 14.9949C89.1227 14.1432 88.8822 13.1777 88.8822 12.0984C88.8822 11.0127 89.1227 10.0439 89.6039 9.1922C90.0915 8.33398 90.7612 7.66757 91.6129 7.19296C92.4711 6.71833 93.4431 6.48102 94.5289 6.48102C95.6211 6.48102 96.5964 6.71833 97.4545 7.19296C98.3193 7.66757 98.9923 8.33074 99.4733 9.18245C99.9544 10.0342 100.198 11.0061 100.205 12.0984C100.198 13.1777 99.9544 14.1432 99.4733 14.9949C98.9987 15.8401 98.329 16.5032 97.4643 16.9844C96.5996 17.459 95.6211 17.6963 94.5289 17.6963ZM94.5289 15.2485C95.101 15.2485 95.6081 15.1184 96.0502 14.8584C96.4924 14.5918 96.8336 14.2212 97.0743 13.7466C97.3148 13.2655 97.435 12.7161 97.435 12.0984C97.435 11.4743 97.3148 10.9216 97.0743 10.4405C96.8336 9.95939 96.4924 9.5888 96.0502 9.32873C95.6081 9.06217 95.101 8.92888 94.5289 8.92888C93.9633 8.92888 93.4594 9.06217 93.0172 9.32873C92.5817 9.5888 92.2435 9.95939 92.003 10.4405C91.7624 10.9216 91.6454 11.4743 91.6519 12.0984C91.6519 12.7161 91.7722 13.2655 92.0127 13.7466C92.2598 14.2212 92.5978 14.5918 93.0269 14.8584C93.4626 15.1184 93.9633 15.2485 94.5289 15.2485ZM103.082 6.71514H100.117L103.326 17.4623H105.92L108.03 10.5981L110.308 17.4623H112.863L116.082 6.71514H113.4L111.574 13.4046L109.557 6.71514H106.963L104.956 13.5519L103.082 6.71514Z" fill="white"/>
<path d="M31.3018 0.305237L21.4365 19.591H12.17L16.2987 11.5982H16.1135C12.7074 16.0197 7.62535 18.9305 0.384277 19.591V11.7088C0.384277 11.7088 5.01657 11.4352 7.73976 8.57215H0.384277V0.305389H8.65104V7.10468L8.83658 7.10392L12.2147 0.305389H18.4667V7.06157L18.6521 7.06127L22.157 0.305237H31.3018ZM85.0987 17.4623H87.7611V2.18025H85.0987V17.4623ZM70.4211 17.3063C70.9996 17.5468 71.5881 17.6671 72.1863 17.6671C73.1744 17.6671 74.0587 17.4266 74.8389 16.9454C75.619 16.4643 76.2237 15.8012 76.6528 14.956C77.082 14.1043 77.2965 13.1387 77.2965 12.0595C77.2965 10.9802 77.0754 10.0147 76.6334 9.16303C76.1912 8.31133 75.5768 7.65141 74.7901 7.18329C74.0034 6.70868 73.1094 6.47462 72.1081 6.48112C71.4711 6.48112 70.8599 6.60465 70.2747 6.85171C69.6896 7.09878 69.202 7.44986 68.8119 7.90498C68.7818 7.93963 68.7525 7.97462 68.7241 8.00997V2.19006H66.052V17.4624H68.7046L68.6993 16.0357C68.7678 16.1198 68.8412 16.2019 68.9191 16.2823C69.3417 16.718 69.8424 17.0592 70.4211 17.3063ZM73.1517 14.839C72.7161 15.1055 72.2187 15.2388 71.6595 15.2388C71.1069 15.2388 70.5998 15.1022 70.1382 14.8292C69.6765 14.5496 69.3092 14.1693 69.0361 13.6881C68.7696 13.2071 68.6363 12.6609 68.6363 12.0497C68.6298 11.4386 68.7598 10.8925 69.0264 10.4114C69.2995 9.92373 69.6668 9.54663 70.1285 9.28007C70.59 9.007 71.1005 8.87371 71.6595 8.88022C72.2187 8.87371 72.7161 9.00374 73.1517 9.27032C73.5938 9.53037 73.9318 9.90422 74.166 10.3918C74.4065 10.873 74.5268 11.4256 74.5268 12.0497C74.5268 12.6739 74.4065 13.2266 74.166 13.7076C73.9318 14.1888 73.5938 14.5659 73.1517 14.839ZM35.1588 3.10676H38.2016L40.9234 13.0471L43.819 3.10676H46.3546L49.4949 12.8476L52.1086 3.10676H54.8977L50.7822 17.4624H48.1588L44.9655 7.9463L42.0343 17.4624H39.3816L35.1588 3.10676ZM59.3914 17.7158C58.3315 17.7224 57.3758 17.4883 56.5241 17.0137C55.6789 16.5325 55.0125 15.8661 54.5248 15.0144C54.0437 14.1628 53.8032 13.1907 53.8032 12.0984C53.8032 11.0387 54.0503 10.0797 54.5444 9.22151C55.0385 8.36329 55.7081 7.69362 56.5534 7.21251C57.3986 6.73139 58.3413 6.49083 59.3815 6.49083C60.5519 6.49083 61.5758 6.75089 62.4535 7.27102C63.3378 7.79115 63.9977 8.52908 64.4333 9.48481C64.8754 10.4341 65.0347 11.5231 64.9112 12.7519H56.5575C56.5809 13.2414 56.703 13.6868 56.924 14.088C57.171 14.53 57.5156 14.8746 57.9577 15.1217C58.3999 15.3688 58.8939 15.4923 59.4401 15.4923C59.8562 15.4858 60.2431 15.4143 60.6006 15.2778C60.9582 15.1348 61.2605 14.943 61.5076 14.7023C61.7612 14.4618 61.94 14.1888 62.044 13.8832H64.8332C64.6641 14.6309 64.3261 15.2973 63.819 15.8824C63.3118 16.4611 62.6747 16.9129 61.9074 17.238C61.1403 17.5631 60.3016 17.7224 59.3914 17.7158ZM56.9337 10.07C56.7779 10.3417 56.6699 10.6342 56.6098 10.9477H62.1473C62.1071 10.5517 61.9849 10.1909 61.7807 9.86516C61.5466 9.48157 61.228 9.18575 60.825 8.97769C60.4219 8.76314 59.9667 8.65587 59.4596 8.65587C58.92 8.65587 58.4291 8.77939 57.9869 9.02646C57.5449 9.27352 57.1938 9.62136 56.9337 10.07ZM79.257 6.71516C79.257 5.84394 79.4552 5.07025 79.8519 4.39408C80.2484 3.71142 80.8044 3.18153 81.5196 2.80444C82.2412 2.42084 83.0832 2.22254 84.0454 2.20954V4.57937C83.5968 4.58588 83.2132 4.68015 82.8947 4.8622C82.5825 5.03774 82.342 5.29456 82.1729 5.63264C82.0174 5.94389 81.9334 6.30472 81.921 6.71516H83.9869V8.96797H81.9194V17.4624H79.257V8.96797H77.5406V6.71516H79.257ZM94.5289 17.6963C93.4431 17.6963 92.4711 17.459 91.6129 16.9844C90.7612 16.5032 90.0915 15.8401 89.6039 14.9949C89.1227 14.1432 88.8822 13.1777 88.8822 12.0984C88.8822 11.0127 89.1227 10.0439 89.6039 9.1922C90.0915 8.33398 90.7612 7.66757 91.6129 7.19296C92.4711 6.71833 93.4431 6.48102 94.5289 6.48102C95.6211 6.48102 96.5964 6.71833 97.4545 7.19296C98.3193 7.66757 98.9923 8.33074 99.4733 9.18245C99.9544 10.0342 100.198 11.0061 100.205 12.0984C100.198 13.1777 99.9544 14.1432 99.4733 14.9949C98.9987 15.8401 98.329 16.5032 97.4643 16.9844C96.5996 17.459 95.6211 17.6963 94.5289 17.6963ZM94.5289 15.2485C95.101 15.2485 95.6081 15.1184 96.0502 14.8584C96.4924 14.5918 96.8336 14.2212 97.0743 13.7466C97.3148 13.2655 97.435 12.7161 97.435 12.0984C97.435 11.4743 97.3148 10.9216 97.0743 10.4405C96.8336 9.95939 96.4924 9.5888 96.0502 9.32873C95.6081 9.06217 95.101 8.92888 94.5289 8.92888C93.9633 8.92888 93.4594 9.06217 93.0172 9.32873C92.5817 9.5888 92.2435 9.95939 92.003 10.4405C91.7624 10.9216 91.6454 11.4743 91.6519 12.0984C91.6519 12.7161 91.7722 13.2655 92.0127 13.7466C92.2598 14.2212 92.5978 14.5918 93.0269 14.8584C93.4626 15.1184 93.9633 15.2485 94.5289 15.2485ZM103.082 6.71514H100.117L103.326 17.4623H105.92L108.03 10.5981L110.308 17.4623H112.863L116.082 6.71514H113.4L111.574 13.4046L109.557 6.71514H106.963L104.956 13.5519L103.082 6.71514Z" fill="white"/>
<path fill-rule="evenodd" clip-rule="evenodd" d="M31.3018 0.305237L21.4365 19.591H12.17L16.2987 11.5982H16.1135C12.7074 16.0197 7.62535 18.9305 0.384277 19.591V11.7088C0.384277 11.7088 5.01657 11.4352 7.73976 8.57215H0.384277V0.305389H8.65104V7.10468L8.83658 7.10392L12.2147 0.305389H18.4667V7.06157L18.6521 7.06127L22.157 0.305237H31.3018ZM85.0987 17.4623H87.7611V2.18025H85.0987V17.4623ZM70.4211 17.3063C70.9996 17.5468 71.5881 17.6671 72.1863 17.6671C73.1744 17.6671 74.0587 17.4266 74.8389 16.9454C75.619 16.4643 76.2237 15.8012 76.6528 14.956C77.082 14.1043 77.2965 13.1387 77.2965 12.0595C77.2965 10.9802 77.0754 10.0147 76.6334 9.16303C76.1912 8.31133 75.5768 7.65141 74.7901 7.18329C74.0034 6.70868 73.1094 6.47462 72.1081 6.48112C71.4711 6.48112 70.8599 6.60465 70.2747 6.85171C69.6896 7.09878 69.202 7.44986 68.8119 7.90498C68.7818 7.93963 68.7525 7.97462 68.7241 8.00997V2.19006H66.052V17.4624H68.7046L68.6993 16.0357C68.7678 16.1198 68.8412 16.2019 68.9191 16.2823C69.3417 16.718 69.8424 17.0592 70.4211 17.3063ZM73.1517 14.839C72.7161 15.1055 72.2187 15.2388 71.6595 15.2388C71.1069 15.2388 70.5998 15.1022 70.1382 14.8292C69.6765 14.5496 69.3092 14.1693 69.0361 13.6881C68.7696 13.2071 68.6363 12.6609 68.6363 12.0497C68.6298 11.4386 68.7598 10.8925 69.0264 10.4114C69.2995 9.92373 69.6668 9.54663 70.1285 9.28007C70.59 9.007 71.1005 8.87371 71.6595 8.88022C72.2187 8.87371 72.7161 9.00374 73.1517 9.27032C73.5938 9.53037 73.9318 9.90422 74.166 10.3918C74.4065 10.873 74.5268 11.4256 74.5268 12.0497C74.5268 12.6739 74.4065 13.2266 74.166 13.7076C73.9318 14.1888 73.5938 14.5659 73.1517 14.839ZM35.1588 3.10676H38.2016L40.9234 13.0471L43.819 3.10676H46.3546L49.4949 12.8476L52.1086 3.10676H54.8977L50.7822 17.4624H48.1588L44.9655 7.9463L42.0343 17.4624H39.3816L35.1588 3.10676ZM59.3914 17.7158C58.3315 17.7224 57.3758 17.4883 56.5241 17.0137C55.6789 16.5325 55.0125 15.8661 54.5248 15.0144C54.0437 14.1628 53.8032 13.1907 53.8032 12.0984C53.8032 11.0387 54.0503 10.0797 54.5444 9.22151C55.0385 8.36329 55.7081 7.69362 56.5534 7.21251C57.3986 6.73139 58.3413 6.49083 59.3815 6.49083C60.5519 6.49083 61.5758 6.75089 62.4535 7.27102C63.3378 7.79115 63.9977 8.52908 64.4333 9.48481C64.8754 10.4341 65.0347 11.5231 64.9112 12.7519H56.5575C56.5809 13.2414 56.703 13.6868 56.924 14.088C57.171 14.53 57.5156 14.8746 57.9577 15.1217C58.3999 15.3688 58.8939 15.4923 59.4401 15.4923C59.8562 15.4858 60.2431 15.4143 60.6006 15.2778C60.9582 15.1348 61.2605 14.943 61.5076 14.7023C61.7612 14.4618 61.94 14.1888 62.044 13.8832H64.8332C64.6641 14.6309 64.3261 15.2973 63.819 15.8824C63.3118 16.4611 62.6747 16.9129 61.9074 17.238C61.1403 17.5631 60.3016 17.7224 59.3914 17.7158ZM56.9337 10.07C56.7779 10.3417 56.6699 10.6342 56.6098 10.9477H62.1473C62.1071 10.5517 61.9849 10.1909 61.7807 9.86516C61.5466 9.48157 61.228 9.18575 60.825 8.97769C60.4219 8.76314 59.9667 8.65587 59.4596 8.65587C58.92 8.65587 58.4291 8.77939 57.9869 9.02646C57.5449 9.27352 57.1938 9.62136 56.9337 10.07ZM79.257 6.71516C79.257 5.84394 79.4552 5.07025 79.8519 4.39408C80.2484 3.71142 80.8044 3.18153 81.5196 2.80444C82.2412 2.42084 83.0832 2.22254 84.0454 2.20954V4.57937C83.5968 4.58588 83.2132 4.68015 82.8947 4.8622C82.5825 5.03774 82.342 5.29456 82.1729 5.63264C82.0174 5.94389 81.9334 6.30472 81.921 6.71516H83.9869V8.96797H81.9194V17.4624H79.257V8.96797H77.5406V6.71516H79.257ZM94.5289 17.6963C93.4431 17.6963 92.4711 17.459 91.6129 16.9844C90.7612 16.5032 90.0915 15.8401 89.6039 14.9949C89.1227 14.1432 88.8822 13.1777 88.8822 12.0984C88.8822 11.0127 89.1227 10.0439 89.6039 9.1922C90.0915 8.33398 90.7612 7.66757 91.6129 7.19296C92.4711 6.71833 93.4431 6.48102 94.5289 6.48102C95.6211 6.48102 96.5964 6.71833 97.4545 7.19296C98.3193 7.66757 98.9923 8.33074 99.4733 9.18245C99.9544 10.0342 100.198 11.0061 100.205 12.0984C100.198 13.1777 99.9544 14.1432 99.4733 14.9949C98.9987 15.8401 98.329 16.5032 97.4643 16.9844C96.5996 17.459 95.6211 17.6963 94.5289 17.6963ZM94.5289 15.2485C95.101 15.2485 95.6081 15.1184 96.0502 14.8584C96.4924 14.5918 96.8336 14.2212 97.0743 13.7466C97.3148 13.2655 97.435 12.7161 97.435 12.0984C97.435 11.4743 97.3148 10.9216 97.0743 10.4405C96.8336 9.95939 96.4924 9.5888 96.0502 9.32873C95.6081 9.06217 95.101 8.92888 94.5289 8.92888C93.9633 8.92888 93.4594 9.06217 93.0172 9.32873C92.5817 9.5888 92.2435 9.95939 92.003 10.4405C91.7624 10.9216 91.6454 11.4743 91.6519 12.0984C91.6519 12.7161 91.7722 13.2655 92.0127 13.7466C92.2598 14.2212 92.5978 14.5918 93.0269 14.8584C93.4626 15.1184 93.9633 15.2485 94.5289 15.2485ZM103.082 6.71514H100.117L103.326 17.4623H105.92L108.03 10.5981L110.308 17.4623H112.863L116.082 6.71514H113.4L111.574 13.4046L109.557 6.71514H106.963L104.956 13.5519L103.082 6.71514Z" fill="white"/>
<path d="M31.3018 0.305237L21.4365 19.591H12.17L16.2987 11.5982H16.1135C12.7074 16.0197 7.62535 18.9305 0.384277 19.591V11.7088C0.384277 11.7088 5.01657 11.4352 7.73976 8.57215H0.384277V0.305389H8.65104V7.10468L8.83658 7.10392L12.2147 0.305389H18.4667V7.06157L18.6521 7.06127L22.157 0.305237H31.3018ZM85.0987 17.4623H87.7611V2.18025H85.0987V17.4623ZM70.4211 17.3063C70.9996 17.5468 71.5881 17.6671 72.1863 17.6671C73.1744 17.6671 74.0587 17.4266 74.8389 16.9454C75.619 16.4643 76.2237 15.8012 76.6528 14.956C77.082 14.1043 77.2965 13.1387 77.2965 12.0595C77.2965 10.9802 77.0754 10.0147 76.6334 9.16303C76.1912 8.31133 75.5768 7.65141 74.7901 7.18329C74.0034 6.70868 73.1094 6.47462 72.1081 6.48112C71.4711 6.48112 70.8599 6.60465 70.2747 6.85171C69.6896 7.09878 69.202 7.44986 68.8119 7.90498C68.7818 7.93963 68.7525 7.97462 68.7241 8.00997V2.19006H66.052V17.4624H68.7046L68.6993 16.0357C68.7678 16.1198 68.8412 16.2019 68.9191 16.2823C69.3417 16.718 69.8424 17.0592 70.4211 17.3063ZM73.1517 14.839C72.7161 15.1055 72.2187 15.2388 71.6595 15.2388C71.1069 15.2388 70.5998 15.1022 70.1382 14.8292C69.6765 14.5496 69.3092 14.1693 69.0361 13.6881C68.7696 13.2071 68.6363 12.6609 68.6363 12.0497C68.6298 11.4386 68.7598 10.8925 69.0264 10.4114C69.2995 9.92373 69.6668 9.54663 70.1285 9.28007C70.59 9.007 71.1005 8.87371 71.6595 8.88022C72.2187 8.87371 72.7161 9.00374 73.1517 9.27032C73.5938 9.53037 73.9318 9.90422 74.166 10.3918C74.4065 10.873 74.5268 11.4256 74.5268 12.0497C74.5268 12.6739 74.4065 13.2266 74.166 13.7076C73.9318 14.1888 73.5938 14.5659 73.1517 14.839ZM35.1588 3.10676H38.2016L40.9234 13.0471L43.819 3.10676H46.3546L49.4949 12.8476L52.1086 3.10676H54.8977L50.7822 17.4624H48.1588L44.9655 7.9463L42.0343 17.4624H39.3816L35.1588 3.10676ZM59.3914 17.7158C58.3315 17.7224 57.3758 17.4883 56.5241 17.0137C55.6789 16.5325 55.0125 15.8661 54.5248 15.0144C54.0437 14.1628 53.8032 13.1907 53.8032 12.0984C53.8032 11.0387 54.0503 10.0797 54.5444 9.22151C55.0385 8.36329 55.7081 7.69362 56.5534 7.21251C57.3986 6.73139 58.3413 6.49083 59.3815 6.49083C60.5519 6.49083 61.5758 6.75089 62.4535 7.27102C63.3378 7.79115 63.9977 8.52908 64.4333 9.48481C64.8754 10.4341 65.0347 11.5231 64.9112 12.7519H56.5575C56.5809 13.2414 56.703 13.6868 56.924 14.088C57.171 14.53 57.5156 14.8746 57.9577 15.1217C58.3999 15.3688 58.8939 15.4923 59.4401 15.4923C59.8562 15.4858 60.2431 15.4143 60.6006 15.2778C60.9582 15.1348 61.2605 14.943 61.5076 14.7023C61.7612 14.4618 61.94 14.1888 62.044 13.8832H64.8332C64.6641 14.6309 64.3261 15.2973 63.819 15.8824C63.3118 16.4611 62.6747 16.9129 61.9074 17.238C61.1403 17.5631 60.3016 17.7224 59.3914 17.7158ZM56.9337 10.07C56.7779 10.3417 56.6699 10.6342 56.6098 10.9477H62.1473C62.1071 10.5517 61.9849 10.1909 61.7807 9.86516C61.5466 9.48157 61.228 9.18575 60.825 8.97769C60.4219 8.76314 59.9667 8.65587 59.4596 8.65587C58.92 8.65587 58.4291 8.77939 57.9869 9.02646C57.5449 9.27352 57.1938 9.62136 56.9337 10.07ZM79.257 6.71516C79.257 5.84394 79.4552 5.07025 79.8519 4.39408C80.2484 3.71142 80.8044 3.18153 81.5196 2.80444C82.2412 2.42084 83.0832 2.22254 84.0454 2.20954V4.57937C83.5968 4.58588 83.2132 4.68015 82.8947 4.8622C82.5825 5.03774 82.342 5.29456 82.1729 5.63264C82.0174 5.94389 81.9334 6.30472 81.921 6.71516H83.9869V8.96797H81.9194V17.4624H79.257V8.96797H77.5406V6.71516H79.257ZM94.5289 17.6963C93.4431 17.6963 92.4711 17.459 91.6129 16.9844C90.7612 16.5032 90.0915 15.8401 89.6039 14.9949C89.1227 14.1432 88.8822 13.1777 88.8822 12.0984C88.8822 11.0127 89.1227 10.0439 89.6039 9.1922C90.0915 8.33398 90.7612 7.66757 91.6129 7.19296C92.4711 6.71833 93.4431 6.48102 94.5289 6.48102C95.6211 6.48102 96.5964 6.71833 97.4545 7.19296C98.3193 7.66757 98.9923 8.33074 99.4733 9.18245C99.9544 10.0342 100.198 11.0061 100.205 12.0984C100.198 13.1777 99.9544 14.1432 99.4733 14.9949C98.9987 15.8401 98.329 16.5032 97.4643 16.9844C96.5996 17.459 95.6211 17.6963 94.5289 17.6963ZM94.5289 15.2485C95.101 15.2485 95.6081 15.1184 96.0502 14.8584C96.4924 14.5918 96.8336 14.2212 97.0743 13.7466C97.3148 13.2655 97.435 12.7161 97.435 12.0984C97.435 11.4743 97.3148 10.9216 97.0743 10.4405C96.8336 9.95939 96.4924 9.5888 96.0502 9.32873C95.6081 9.06217 95.101 8.92888 94.5289 8.92888C93.9633 8.92888 93.4594 9.06217 93.0172 9.32873C92.5817 9.5888 92.2435 9.95939 92.003 10.4405C91.7624 10.9216 91.6454 11.4743 91.6519 12.0984C91.6519 12.7161 91.7722 13.2655 92.0127 13.7466C92.2598 14.2212 92.5978 14.5918 93.0269 14.8584C93.4626 15.1184 93.9633 15.2485 94.5289 15.2485ZM103.082 6.71514H100.117L103.326 17.4623H105.92L108.03 10.5981L110.308 17.4623H112.863L116.082 6.71514H113.4L111.574 13.4046L109.557 6.71514H106.963L104.956 13.5519L103.082 6.71514Z" fill="white"/>
<path fill-rule="evenodd" clip-rule="evenodd" d="M31.3018 0.305237L21.4365 19.591H12.17L16.2987 11.5982H16.1135C12.7074 16.0197 7.62535 18.9305 0.384277 19.591V11.7088C0.384277 11.7088 5.01657 11.4352 7.73976 8.57215H0.384277V0.305389H8.65104V7.10468L8.83658 7.10392L12.2147 0.305389H18.4667V7.06157L18.6521 7.06127L22.157 0.305237H31.3018ZM85.0987 17.4623H87.7611V2.18025H85.0987V17.4623ZM70.4211 17.3063C70.9996 17.5468 71.5881 17.6671 72.1863 17.6671C73.1744 17.6671 74.0587 17.4266 74.8389 16.9454C75.619 16.4643 76.2237 15.8012 76.6528 14.956C77.082 14.1043 77.2965 13.1387 77.2965 12.0595C77.2965 10.9802 77.0754 10.0147 76.6334 9.16303C76.1912 8.31133 75.5768 7.65141 74.7901 7.18329C74.0034 6.70868 73.1094 6.47462 72.1081 6.48112C71.4711 6.48112 70.8599 6.60465 70.2747 6.85171C69.6896 7.09878 69.202 7.44986 68.8119 7.90498C68.7818 7.93963 68.7525 7.97462 68.7241 8.00997V2.19006H66.052V17.4624H68.7046L68.6993 16.0357C68.7678 16.1198 68.8412 16.2019 68.9191 16.2823C69.3417 16.718 69.8424 17.0592 70.4211 17.3063ZM73.1517 14.839C72.7161 15.1055 72.2187 15.2388 71.6595 15.2388C71.1069 15.2388 70.5998 15.1022 70.1382 14.8292C69.6765 14.5496 69.3092 14.1693 69.0361 13.6881C68.7696 13.2071 68.6363 12.6609 68.6363 12.0497C68.6298 11.4386 68.7598 10.8925 69.0264 10.4114C69.2995 9.92373 69.6668 9.54663 70.1285 9.28007C70.59 9.007 71.1005 8.87371 71.6595 8.88022C72.2187 8.87371 72.7161 9.00374 73.1517 9.27032C73.5938 9.53037 73.9318 9.90422 74.166 10.3918C74.4065 10.873 74.5268 11.4256 74.5268 12.0497C74.5268 12.6739 74.4065 13.2266 74.166 13.7076C73.9318 14.1888 73.5938 14.5659 73.1517 14.839ZM35.1588 3.10676H38.2016L40.9234 13.0471L43.819 3.10676H46.3546L49.4949 12.8476L52.1086 3.10676H54.8977L50.7822 17.4624H48.1588L44.9655 7.9463L42.0343 17.4624H39.3816L35.1588 3.10676ZM59.3914 17.7158C58.3315 17.7224 57.3758 17.4883 56.5241 17.0137C55.6789 16.5325 55.0125 15.8661 54.5248 15.0144C54.0437 14.1628 53.8032 13.1907 53.8032 12.0984C53.8032 11.0387 54.0503 10.0797 54.5444 9.22151C55.0385 8.36329 55.7081 7.69362 56.5534 7.21251C57.3986 6.73139 58.3413 6.49083 59.3815 6.49083C60.5519 6.49083 61.5758 6.75089 62.4535 7.27102C63.3378 7.79115 63.9977 8.52908 64.4333 9.48481C64.8754 10.4341 65.0347 11.5231 64.9112 12.7519H56.5575C56.5809 13.2414 56.703 13.6868 56.924 14.088C57.171 14.53 57.5156 14.8746 57.9577 15.1217C58.3999 15.3688 58.8939 15.4923 59.4401 15.4923C59.8562 15.4858 60.2431 15.4143 60.6006 15.2778C60.9582 15.1348 61.2605 14.943 61.5076 14.7023C61.7612 14.4618 61.94 14.1888 62.044 13.8832H64.8332C64.6641 14.6309 64.3261 15.2973 63.819 15.8824C63.3118 16.4611 62.6747 16.9129 61.9074 17.238C61.1403 17.5631 60.3016 17.7224 59.3914 17.7158ZM56.9337 10.07C56.7779 10.3417 56.6699 10.6342 56.6098 10.9477H62.1473C62.1071 10.5517 61.9849 10.1909 61.7807 9.86516C61.5466 9.48157 61.228 9.18575 60.825 8.97769C60.4219 8.76314 59.9667 8.65587 59.4596 8.65587C58.92 8.65587 58.4291 8.77939 57.9869 9.02646C57.5449 9.27352 57.1938 9.62136 56.9337 10.07ZM79.257 6.71516C79.257 5.84394 79.4552 5.07025 79.8519 4.39408C80.2484 3.71142 80.8044 3.18153 81.5196 2.80444C82.2412 2.42084 83.0832 2.22254 84.0454 2.20954V4.57937C83.5968 4.58588 83.2132 4.68015 82.8947 4.8622C82.5825 5.03774 82.342 5.29456 82.1729 5.63264C82.0174 5.94389 81.9334 6.30472 81.921 6.71516H83.9869V8.96797H81.9194V17.4624H79.257V8.96797H77.5406V6.71516H79.257ZM94.5289 17.6963C93.4431 17.6963 92.4711 17.459 91.6129 16.9844C90.7612 16.5032 90.0915 15.8401 89.6039 14.9949C89.1227 14.1432 88.8822 13.1777 88.8822 12.0984C88.8822 11.0127 89.1227 10.0439 89.6039 9.1922C90.0915 8.33398 90.7612 7.66757 91.6129 7.19296C92.4711 6.71833 93.4431 6.48102 94.5289 6.48102C95.6211 6.48102 96.5964 6.71833 97.4545 7.19296C98.3193 7.66757 98.9923 8.33074 99.4733 9.18245C99.9544 10.0342 100.198 11.0061 100.205 12.0984C100.198 13.1777 99.9544 14.1432 99.4733 14.9949C98.9987 15.8401 98.329 16.5032 97.4643 16.9844C96.5996 17.459 95.6211 17.6963 94.5289 17.6963ZM94.5289 15.2485C95.101 15.2485 95.6081 15.1184 96.0502 14.8584C96.4924 14.5918 96.8336 14.2212 97.0743 13.7466C97.3148 13.2655 97.435 12.7161 97.435 12.0984C97.435 11.4743 97.3148 10.9216 97.0743 10.4405C96.8336 9.95939 96.4924 9.5888 96.0502 9.32873C95.6081 9.06217 95.101 8.92888 94.5289 8.92888C93.9633 8.92888 93.4594 9.06217 93.0172 9.32873C92.5817 9.5888 92.2435 9.95939 92.003 10.4405C91.7624 10.9216 91.6454 11.4743 91.6519 12.0984C91.6519 12.7161 91.7722 13.2655 92.0127 13.7466C92.2598 14.2212 92.5978 14.5918 93.0269 14.8584C93.4626 15.1184 93.9633 15.2485 94.5289 15.2485ZM103.082 6.71514H100.117L103.326 17.4623H105.92L108.03 10.5981L110.308 17.4623H112.863L116.082 6.71514H113.4L111.574 13.4046L109.557 6.71514H106.963L104.956 13.5519L103.082 6.71514Z" fill="white"/>
<path d="M31.3018 0.305237L21.4365 19.591H12.17L16.2987 11.5982H16.1135C12.7074 16.0197 7.62535 18.9305 0.384277 19.591V11.7088C0.384277 11.7088 5.01657 11.4352 7.73976 8.57215H0.384277V0.305389H8.65104V7.10468L8.83658 7.10392L12.2147 0.305389H18.4667V7.06157L18.6521 7.06127L22.157 0.305237H31.3018ZM85.0987 17.4623H87.7611V2.18025H85.0987V17.4623ZM70.4211 17.3063C70.9996 17.5468 71.5881 17.6671 72.1863 17.6671C73.1744 17.6671 74.0587 17.4266 74.8389 16.9454C75.619 16.4643 76.2237 15.8012 76.6528 14.956C77.082 14.1043 77.2965 13.1387 77.2965 12.0595C77.2965 10.9802 77.0754 10.0147 76.6334 9.16303C76.1912 8.31133 75.5768 7.65141 74.7901 7.18329C74.0034 6.70868 73.1094 6.47462 72.1081 6.48112C71.4711 6.48112 70.8599 6.60465 70.2747 6.85171C69.6896 7.09878 69.202 7.44986 68.8119 7.90498C68.7818 7.93963 68.7525 7.97462 68.7241 8.00997V2.19006H66.052V17.4624H68.7046L68.6993 16.0357C68.7678 16.1198 68.8412 16.2019 68.9191 16.2823C69.3417 16.718 69.8424 17.0592 70.4211 17.3063ZM73.1517 14.839C72.7161 15.1055 72.2187 15.2388 71.6595 15.2388C71.1069 15.2388 70.5998 15.1022 70.1382 14.8292C69.6765 14.5496 69.3092 14.1693 69.0361 13.6881C68.7696 13.2071 68.6363 12.6609 68.6363 12.0497C68.6298 11.4386 68.7598 10.8925 69.0264 10.4114C69.2995 9.92373 69.6668 9.54663 70.1285 9.28007C70.59 9.007 71.1005 8.87371 71.6595 8.88022C72.2187 8.87371 72.7161 9.00374 73.1517 9.27032C73.5938 9.53037 73.9318 9.90422 74.166 10.3918C74.4065 10.873 74.5268 11.4256 74.5268 12.0497C74.5268 12.6739 74.4065 13.2266 74.166 13.7076C73.9318 14.1888 73.5938 14.5659 73.1517 14.839ZM35.1588 3.10676H38.2016L40.9234 13.0471L43.819 3.10676H46.3546L49.4949 12.8476L52.1086 3.10676H54.8977L50.7822 17.4624H48.1588L44.9655 7.9463L42.0343 17.4624H39.3816L35.1588 3.10676ZM59.3914 17.7158C58.3315 17.7224 57.3758 17.4883 56.5241 17.0137C55.6789 16.5325 55.0125 15.8661 54.5248 15.0144C54.0437 14.1628 53.8032 13.1907 53.8032 12.0984C53.8032 11.0387 54.0503 10.0797 54.5444 9.22151C55.0385 8.36329 55.7081 7.69362 56.5534 7.21251C57.3986 6.73139 58.3413 6.49083 59.3815 6.49083C60.5519 6.49083 61.5758 6.75089 62.4535 7.27102C63.3378 7.79115 63.9977 8.52908 64.4333 9.48481C64.8754 10.4341 65.0347 11.5231 64.9112 12.7519H56.5575C56.5809 13.2414 56.703 13.6868 56.924 14.088C57.171 14.53 57.5156 14.8746 57.9577 15.1217C58.3999 15.3688 58.8939 15.4923 59.4401 15.4923C59.8562 15.4858 60.2431 15.4143 60.6006 15.2778C60.9582 15.1348 61.2605 14.943 61.5076 14.7023C61.7612 14.4618 61.94 14.1888 62.044 13.8832H64.8332C64.6641 14.6309 64.3261 15.2973 63.819 15.8824C63.3118 16.4611 62.6747 16.9129 61.9074 17.238C61.1403 17.5631 60.3016 17.7224 59.3914 17.7158ZM56.9337 10.07C56.7779 10.3417 56.6699 10.6342 56.6098 10.9477H62.1473C62.1071 10.5517 61.9849 10.1909 61.7807 9.86516C61.5466 9.48157 61.228 9.18575 60.825 8.97769C60.4219 8.76314 59.9667 8.65587 59.4596 8.65587C58.92 8.65587 58.4291 8.77939 57.9869 9.02646C57.5449 9.27352 57.1938 9.62136 56.9337 10.07ZM79.257 6.71516C79.257 5.84394 79.4552 5.07025 79.8519 4.39408C80.2484 3.71142 80.8044 3.18153 81.5196 2.80444C82.2412 2.42084 83.0832 2.22254 84.0454 2.20954V4.57937C83.5968 4.58588 83.2132 4.68015 82.8947 4.8622C82.5825 5.03774 82.342 5.29456 82.1729 5.63264C82.0174 5.94389 81.9334 6.30472 81.921 6.71516H83.9869V8.96797H81.9194V17.4624H79.257V8.96797H77.5406V6.71516H79.257ZM94.5289 17.6963C93.4431 17.6963 92.4711 17.459 91.6129 16.9844C90.7612 16.5032 90.0915 15.8401 89.6039 14.9949C89.1227 14.1432 88.8822 13.1777 88.8822 12.0984C88.8822 11.0127 89.1227 10.0439 89.6039 9.1922C90.0915 8.33398 90.7612 7.66757 91.6129 7.19296C92.4711 6.71833 93.4431 6.48102 94.5289 6.48102C95.6211 6.48102 96.5964 6.71833 97.4545 7.19296C98.3193 7.66757 98.9923 8.33074 99.4733 9.18245C99.9544 10.0342 100.198 11.0061 100.205 12.0984C100.198 13.1777 99.9544 14.1432 99.4733 14.9949C98.9987 15.8401 98.329 16.5032 97.4643 16.9844C96.5996 17.459 95.6211 17.6963 94.5289 17.6963ZM94.5289 15.2485C95.101 15.2485 95.6081 15.1184 96.0502 14.8584C96.4924 14.5918 96.8336 14.2212 97.0743 13.7466C97.3148 13.2655 97.435 12.7161 97.435 12.0984C97.435 11.4743 97.3148 10.9216 97.0743 10.4405C96.8336 9.95939 96.4924 9.5888 96.0502 9.32873C95.6081 9.06217 95.101 8.92888 94.5289 8.92888C93.9633 8.92888 93.4594 9.06217 93.0172 9.32873C92.5817 9.5888 92.2435 9.95939 92.003 10.4405C91.7624 10.9216 91.6454 11.4743 91.6519 12.0984C91.6519 12.7161 91.7722 13.2655 92.0127 13.7466C92.2598 14.2212 92.5978 14.5918 93.0269 14.8584C93.4626 15.1184 93.9633 15.2485 94.5289 15.2485ZM103.082 6.71514H100.117L103.326 17.4623H105.92L108.03 10.5981L110.308 17.4623H112.863L116.082 6.71514H113.4L111.574 13.4046L109.557 6.71514H106.963L104.956 13.5519L103.082 6.71514Z" fill="white"/>
<path fill-rule="evenodd" clip-rule="evenodd" d="M31.3018 0.305237L21.4365 19.591H12.17L16.2987 11.5982H16.1135C12.7074 16.0197 7.62535 18.9305 0.384277 19.591V11.7088C0.384277 11.7088 5.01657 11.4352 7.73976 8.57215H0.384277V0.305389H8.65104V7.10468L8.83658 7.10392L12.2147 0.305389H18.4667V7.06157L18.6521 7.06127L22.157 0.305237H31.3018ZM85.0987 17.4623H87.7611V2.18025H85.0987V17.4623ZM70.4211 17.3063C70.9996 17.5468 71.5881 17.6671 72.1863 17.6671C73.1744 17.6671 74.0587 17.4266 74.8389 16.9454C75.619 16.4643 76.2237 15.8012 76.6528 14.956C77.082 14.1043 77.2965 13.1387 77.2965 12.0595C77.2965 10.9802 77.0754 10.0147 76.6334 9.16303C76.1912 8.31133 75.5768 7.65141 74.7901 7.18329C74.0034 6.70868 73.1094 6.47462 72.1081 6.48112C71.4711 6.48112 70.8599 6.60465 70.2747 6.85171C69.6896 7.09878 69.202 7.44986 68.8119 7.90498C68.7818 7.93963 68.7525 7.97462 68.7241 8.00997V2.19006H66.052V17.4624H68.7046L68.6993 16.0357C68.7678 16.1198 68.8412 16.2019 68.9191 16.2823C69.3417 16.718 69.8424 17.0592 70.4211 17.3063ZM73.1517 14.839C72.7161 15.1055 72.2187 15.2388 71.6595 15.2388C71.1069 15.2388 70.5998 15.1022 70.1382 14.8292C69.6765 14.5496 69.3092 14.1693 69.0361 13.6881C68.7696 13.2071 68.6363 12.6609 68.6363 12.0497C68.6298 11.4386 68.7598 10.8925 69.0264 10.4114C69.2995 9.92373 69.6668 9.54663 70.1285 9.28007C70.59 9.007 71.1005 8.87371 71.6595 8.88022C72.2187 8.87371 72.7161 9.00374 73.1517 9.27032C73.5938 9.53037 73.9318 9.90422 74.166 10.3918C74.4065 10.873 74.5268 11.4256 74.5268 12.0497C74.5268 12.6739 74.4065 13.2266 74.166 13.7076C73.9318 14.1888 73.5938 14.5659 73.1517 14.839ZM35.1588 3.10676H38.2016L40.9234 13.0471L43.819 3.10676H46.3546L49.4949 12.8476L52.1086 3.10676H54.8977L50.7822 17.4624H48.1588L44.9655 7.9463L42.0343 17.4624H39.3816L35.1588 3.10676ZM59.3914 17.7158C58.3315 17.7224 57.3758 17.4883 56.5241 17.0137C55.6789 16.5325 55.0125 15.8661 54.5248 15.0144C54.0437 14.1628 53.8032 13.1907 53.8032 12.0984C53.8032 11.0387 54.0503 10.0797 54.5444 9.22151C55.0385 8.36329 55.7081 7.69362 56.5534 7.21251C57.3986 6.73139 58.3413 6.49083 59.3815 6.49083C60.5519 6.49083 61.5758 6.75089 62.4535 7.27102C63.3378 7.79115 63.9977 8.52908 64.4333 9.48481C64.8754 10.4341 65.0347 11.5231 64.9112 12.7519H56.5575C56.5809 13.2414 56.703 13.6868 56.924 14.088C57.171 14.53 57.5156 14.8746 57.9577 15.1217C58.3999 15.3688 58.8939 15.4923 59.4401 15.4923C59.8562 15.4858 60.2431 15.4143 60.6006 15.2778C60.9582 15.1348 61.2605 14.943 61.5076 14.7023C61.7612 14.4618 61.94 14.1888 62.044 13.8832H64.8332C64.6641 14.6309 64.3261 15.2973 63.819 15.8824C63.3118 16.4611 62.6747 16.9129 61.9074 17.238C61.1403 17.5631 60.3016 17.7224 59.3914 17.7158ZM56.9337 10.07C56.7779 10.3417 56.6699 10.6342 56.6098 10.9477H62.1473C62.1071 10.5517 61.9849 10.1909 61.7807 9.86516C61.5466 9.48157 61.228 9.18575 60.825 8.97769C60.4219 8.76314 59.9667 8.65587 59.4596 8.65587C58.92 8.65587 58.4291 8.77939 57.9869 9.02646C57.5449 9.27352 57.1938 9.62136 56.9337 10.07ZM79.257 6.71516C79.257 5.84394 79.4552 5.07025 79.8519 4.39408C80.2484 3.71142 80.8044 3.18153 81.5196 2.80444C82.2412 2.42084 83.0832 2.22254 84.0454 2.20954V4.57937C83.5968 4.58588 83.2132 4.68015 82.8947 4.8622C82.5825 5.03774 82.342 5.29456 82.1729 5.63264C82.0174 5.94389 81.9334 6.30472 81.921 6.71516H83.9869V8.96797H81.9194V17.4624H79.257V8.96797H77.5406V6.71516H79.257ZM94.5289 17.6963C93.4431 17.6963 92.4711 17.459 91.6129 16.9844C90.7612 16.5032 90.0915 15.8401 89.6039 14.9949C89.1227 14.1432 88.8822 13.1777 88.8822 12.0984C88.8822 11.0127 89.1227 10.0439 89.6039 9.1922C90.0915 8.33398 90.7612 7.66757 91.6129 7.19296C92.4711 6.71833 93.4431 6.48102 94.5289 6.48102C95.6211 6.48102 96.5964 6.71833 97.4545 7.19296C98.3193 7.66757 98.9923 8.33074 99.4733 9.18245C99.9544 10.0342 100.198 11.0061 100.205 12.0984C100.198 13.1777 99.9544 14.1432 99.4733 14.9949C98.9987 15.8401 98.329 16.5032 97.4643 16.9844C96.5996 17.459 95.6211 17.6963 94.5289 17.6963ZM94.5289 15.2485C95.101 15.2485 95.6081 15.1184 96.0502 14.8584C96.4924 14.5918 96.8336 14.2212 97.0743 13.7466C97.3148 13.2655 97.435 12.7161 97.435 12.0984C97.435 11.4743 97.3148 10.9216 97.0743 10.4405C96.8336 9.95939 96.4924 9.5888 96.0502 9.32873C95.6081 9.06217 95.101 8.92888 94.5289 8.92888C93.9633 8.92888 93.4594 9.06217 93.0172 9.32873C92.5817 9.5888 92.2435 9.95939 92.003 10.4405C91.7624 10.9216 91.6454 11.4743 91.6519 12.0984C91.6519 12.7161 91.7722 13.2655 92.0127 13.7466C92.2598 14.2212 92.5978 14.5918 93.0269 14.8584C93.4626 15.1184 93.9633 15.2485 94.5289 15.2485ZM103.082 6.71514H100.117L103.326 17.4623H105.92L108.03 10.5981L110.308 17.4623H112.863L116.082 6.71514H113.4L111.574 13.4046L109.557 6.71514H106.963L104.956 13.5519L103.082 6.71514Z" fill="white"/>
<path d="M31.3018 0.305237L21.4365 19.591H12.17L16.2987 11.5982H16.1135C12.7074 16.0197 7.62535 18.9305 0.384277 19.591V11.7088C0.384277 11.7088 5.01657 11.4352 7.73976 8.57215H0.384277V0.305389H8.65104V7.10468L8.83658 7.10392L12.2147 0.305389H18.4667V7.06157L18.6521 7.06127L22.157 0.305237H31.3018ZM85.0987 17.4623H87.7611V2.18025H85.0987V17.4623ZM70.4211 17.3063C70.9996 17.5468 71.5881 17.6671 72.1863 17.6671C73.1744 17.6671 74.0587 17.4266 74.8389 16.9454C75.619 16.4643 76.2237 15.8012 76.6528 14.956C77.082 14.1043 77.2965 13.1387 77.2965 12.0595C77.2965 10.9802 77.0754 10.0147 76.6334 9.16303C76.1912 8.31133 75.5768 7.65141 74.7901 7.18329C74.0034 6.70868 73.1094 6.47462 72.1081 6.48112C71.4711 6.48112 70.8599 6.60465 70.2747 6.85171C69.6896 7.09878 69.202 7.44986 68.8119 7.90498C68.7818 7.93963 68.7525 7.97462 68.7241 8.00997V2.19006H66.052V17.4624H68.7046L68.6993 16.0357C68.7678 16.1198 68.8412 16.2019 68.9191 16.2823C69.3417 16.718 69.8424 17.0592 70.4211 17.3063ZM73.1517 14.839C72.7161 15.1055 72.2187 15.2388 71.6595 15.2388C71.1069 15.2388 70.5998 15.1022 70.1382 14.8292C69.6765 14.5496 69.3092 14.1693 69.0361 13.6881C68.7696 13.2071 68.6363 12.6609 68.6363 12.0497C68.6298 11.4386 68.7598 10.8925 69.0264 10.4114C69.2995 9.92373 69.6668 9.54663 70.1285 9.28007C70.59 9.007 71.1005 8.87371 71.6595 8.88022C72.2187 8.87371 72.7161 9.00374 73.1517 9.27032C73.5938 9.53037 73.9318 9.90422 74.166 10.3918C74.4065 10.873 74.5268 11.4256 74.5268 12.0497C74.5268 12.6739 74.4065 13.2266 74.166 13.7076C73.9318 14.1888 73.5938 14.5659 73.1517 14.839ZM35.1588 3.10676H38.2016L40.9234 13.0471L43.819 3.10676H46.3546L49.4949 12.8476L52.1086 3.10676H54.8977L50.7822 17.4624H48.1588L44.9655 7.9463L42.0343 17.4624H39.3816L35.1588 3.10676ZM59.3914 17.7158C58.3315 17.7224 57.3758 17.4883 56.5241 17.0137C55.6789 16.5325 55.0125 15.8661 54.5248 15.0144C54.0437 14.1628 53.8032 13.1907 53.8032 12.0984C53.8032 11.0387 54.0503 10.0797 54.5444 9.22151C55.0385 8.36329 55.7081 7.69362 56.5534 7.21251C57.3986 6.73139 58.3413 6.49083 59.3815 6.49083C60.5519 6.49083 61.5758 6.75089 62.4535 7.27102C63.3378 7.79115 63.9977 8.52908 64.4333 9.48481C64.8754 10.4341 65.0347 11.5231 64.9112 12.7519H56.5575C56.5809 13.2414 56.703 13.6868 56.924 14.088C57.171 14.53 57.5156 14.8746 57.9577 15.1217C58.3999 15.3688 58.8939 15.4923 59.4401 15.4923C59.8562 15.4858 60.2431 15.4143 60.6006 15.2778C60.9582 15.1348 61.2605 14.943 61.5076 14.7023C61.7612 14.4618 61.94 14.1888 62.044 13.8832H64.8332C64.6641 14.6309 64.3261 15.2973 63.819 15.8824C63.3118 16.4611 62.6747 16.9129 61.9074 17.238C61.1403 17.5631 60.3016 17.7224 59.3914 17.7158ZM56.9337 10.07C56.7779 10.3417 56.6699 10.6342 56.6098 10.9477H62.1473C62.1071 10.5517 61.9849 10.1909 61.7807 9.86516C61.5466 9.48157 61.228 9.18575 60.825 8.97769C60.4219 8.76314 59.9667 8.65587 59.4596 8.65587C58.92 8.65587 58.4291 8.77939 57.9869 9.02646C57.5449 9.27352 57.1938 9.62136 56.9337 10.07ZM79.257 6.71516C79.257 5.84394 79.4552 5.07025 79.8519 4.39408C80.2484 3.71142 80.8044 3.18153 81.5196 2.80444C82.2412 2.42084 83.0832 2.22254 84.0454 2.20954V4.57937C83.5968 4.58588 83.2132 4.68015 82.8947 4.8622C82.5825 5.03774 82.342 5.29456 82.1729 5.63264C82.0174 5.94389 81.9334 6.30472 81.921 6.71516H83.9869V8.96797H81.9194V17.4624H79.257V8.96797H77.5406V6.71516H79.257ZM94.5289 17.6963C93.4431 17.6963 92.4711 17.459 91.6129 16.9844C90.7612 16.5032 90.0915 15.8401 89.6039 14.9949C89.1227 14.1432 88.8822 13.1777 88.8822 12.0984C88.8822 11.0127 89.1227 10.0439 89.6039 9.1922C90.0915 8.33398 90.7612 7.66757 91.6129 7.19296C92.4711 6.71833 93.4431 6.48102 94.5289 6.48102C95.6211 6.48102 96.5964 6.71833 97.4545 7.19296C98.3193 7.66757 98.9923 8.33074 99.4733 9.18245C99.9544 10.0342 100.198 11.0061 100.205 12.0984C100.198 13.1777 99.9544 14.1432 99.4733 14.9949C98.9987 15.8401 98.329 16.5032 97.4643 16.9844C96.5996 17.459 95.6211 17.6963 94.5289 17.6963ZM94.5289 15.2485C95.101 15.2485 95.6081 15.1184 96.0502 14.8584C96.4924 14.5918 96.8336 14.2212 97.0743 13.7466C97.3148 13.2655 97.435 12.7161 97.435 12.0984C97.435 11.4743 97.3148 10.9216 97.0743 10.4405C96.8336 9.95939 96.4924 9.5888 96.0502 9.32873C95.6081 9.06217 95.101 8.92888 94.5289 8.92888C93.9633 8.92888 93.4594 9.06217 93.0172 9.32873C92.5817 9.5888 92.2435 9.95939 92.003 10.4405C91.7624 10.9216 91.6454 11.4743 91.6519 12.0984C91.6519 12.7161 91.7722 13.2655 92.0127 13.7466C92.2598 14.2212 92.5978 14.5918 93.0269 14.8584C93.4626 15.1184 93.9633 15.2485 94.5289 15.2485ZM103.082 6.71514H100.117L103.326 17.4623H105.92L108.03 10.5981L110.308 17.4623H112.863L116.082 6.71514H113.4L111.574 13.4046L109.557 6.71514H106.963L104.956 13.5519L103.082 6.71514Z" fill="white"/>
</svg>
